<svg viewBox="1.7027027027027026 5.3359999999999985 101.62162162162161 90.18" version="1.1" xmlns="http://www.w3.org/2000/svg" style="max-height: 500px" width="101.62162162162161" height="90.18">
 <path d="m78.719 54.484c0.96875 0.93359 2.2617 0.015625 3.2188 0.79688 0.35938 0.29688 0.5625 0.73438 0.5625 1.1875v2.9531c0.79688-0.28125 1.5625-0.54688 2.1406-0.73438-0.625-19.234-7.1406-30.172-14.188-36.359 4.8594 9.8594 6.6562 23 7.2969 30.406 0.0625 0.70312 0.40625 1.3125 0.96875 1.75z"/>
 <path d="m57.75 52.953c0.63672 5.8008-3.9648 10.555-9.6406 10.844v5.8281c22.188 1.2344 29.688-4.1719 31.266-5.5938v-5.9844c-2.5-0.35156-4.543-2.5195-4.7344-5.0469-0.8125-9.3125-4.6875-39.734-20.328-40.359-9.7031-0.375-14.797 0.70312-17.453 1.8281 15.949 2.4883 19.48 26.363 20.891 38.484z"/>
 <path d="m93.078 69.766-5.5781-9.0312c-0.27734 0.35156-0.53906 0.51172-1 0.64062-0.59375 0.1875-2.4062 0.76562-4 1.375-0.046875 0.69531 0.19531 2.293-0.3125 2.8594-0.25 0.32812-5.8594 7.3281-27.828 7.3281-2.4375 0-5.0781-0.09375-7.9219-0.28125-0.60938-0.03125-1.1094-0.42188-1.3281-0.9375-13.328-0.29688-26.641-8.2812-31.875-11.797-1.8438-1.25-2.8906-3.3125-2.7969-5.5156 0.054688-0.91797 0.085938-1.7695 0.1875-2.7969 0 0-3.6406 3.875-3.6406 3.875-1.7031 1.8125-1.7656 4.6094-0.15625 6.5l4.8594 5.6562c1.2344 1.4375 2.9219 2.4531 4.75 2.8594l9.2812 2.0625 11.641 8.6406c10.25 7.6172 23.277 10.172 35.531 7.1562l14-3.4531c6.5234-1.3984 9.8594-9.5781 6.1875-15.141z"/>
 <path d="m14.984 57.328c4.9688 3.3438 17.531 10.984 30 11.281v-6.1719c0-0.76562 0.5625-1.4219 1.3281-1.5469l2.7344-0.40625c3.5-0.51562 5.9531-3.6875 5.5938-7.2188-1.4219-11.727-4.8789-37.27-21.625-35.688-4.0625 1.5781-7.2812 4.1406-9.8281 7.2188 4.7031 2.1875 16.469 8.7969 20.297 21.766 0.58203 1.9648-2.3945 2.832-3 0.89062-3.5938-12.219-15.484-18.406-19.203-20.078-6.3281 9.5469-7.5 22.281-7.7188 27.156-0.046875 1.125 0.48438 2.1562 1.4219 2.7969z"/>
<text fill="#000000" font-family="Arbeit Regular, Helvetica, Arial-Unicode, Arial, Sans-serif" font-weight="bold" font-size="5.0" y="117.5" x="0.0">Created by sentya irma</text><text fill="#000000" font-family="Arbeit Regular, Helvetica, Arial-Unicode, Arial, Sans-serif" font-weight="bold" font-size="5.0" y="122.5" x="0.0">from Noun Project</text></svg>